<svg width="185" height="88" viewBox="0 0 185 88" fill="none" xmlns="http://www.w3.org/2000/svg">
<path fill-rule="evenodd" clip-rule="evenodd" d="M175.312 72.2904C175.312 72.0421 175.538 71.7952 175.806 71.7952H177.065C177.312 71.7952 177.559 72.0421 177.559 72.2904V77.9908C177.806 77.8112 178.928 76.9131 180.566 76.9131C183.509 76.9131 184.585 78.9801 184.585 81.8091V87.0169C184.585 87.285 184.338 87.5108 184.091 87.5108H182.835C182.566 87.5108 182.341 87.285 182.341 87.0169V81.7629C182.341 80.0578 181.623 79.0461 180.274 79.0461C178.68 79.0461 177.783 80.1014 177.559 80.5504V87.0169C177.559 87.3087 177.355 87.5108 177.042 87.5108H175.806C175.538 87.5108 175.312 87.285 175.312 87.0169V72.2904" fill="#53565A"/>
<path fill-rule="evenodd" clip-rule="evenodd" d="M173.24 77.633V78.5535C173.24 78.7992 173.039 79.0462 172.747 79.0462H171.557L171.556 87.0169C171.556 87.285 171.309 87.5109 171.062 87.5109H169.806C169.535 87.5109 169.311 87.285 169.311 87.0169V79.0462H168.121C167.829 79.0462 167.628 78.7992 167.628 78.5535V77.633C167.628 77.3411 167.829 77.1377 168.121 77.1377H169.311V74.2426C169.311 73.9732 169.514 73.7473 169.783 73.7473H171.084C171.354 73.7473 171.557 73.9732 171.557 74.2426V77.1377H172.747C173.039 77.1377 173.24 77.3411 173.24 77.633" fill="#53565A"/>
<mask id="mask0_312_3878" style="mask-type:alpha" maskUnits="userSpaceOnUse" x="106" y="71" width="60" height="17">
<path fill-rule="evenodd" clip-rule="evenodd" d="M106.915 71.7952H165.557V87.6786H106.915V71.7952Z" fill="white"/>
</mask>
<g mask="url(#mask0_312_3878)">
<path fill-rule="evenodd" clip-rule="evenodd" d="M163.312 72.2904C163.312 72.0421 163.536 71.7952 163.806 71.7952H165.062C165.309 71.7952 165.557 72.0421 165.557 72.2904V87.0169C165.557 87.285 165.309 87.5108 165.062 87.5108H163.806C163.536 87.5108 163.312 87.285 163.312 87.0169V72.2904" fill="#53565A"/>
<path fill-rule="evenodd" clip-rule="evenodd" d="M155.703 85.9153C156.736 85.9153 157.791 85.1757 158.105 84.6593V82.9318C157.971 82.8406 157.162 82.5725 156.219 82.5725C155.007 82.5725 154.086 83.1999 154.086 84.2776C154.086 85.1982 154.625 85.9153 155.703 85.9153ZM156.04 80.9559C157.118 80.9559 158.128 81.2703 158.128 81.2703C158.173 79.6299 157.769 78.8889 156.466 78.8889C155.278 78.8889 154.109 79.227 153.571 79.3842C153.256 79.4516 153.054 79.2482 152.986 78.9563L152.784 78.1044C152.717 77.7438 152.874 77.5867 153.122 77.4982C153.301 77.4321 154.782 76.9131 156.691 76.9131C160.013 76.9131 160.328 78.9127 160.328 81.4948V87.0169C160.328 87.285 160.081 87.5108 159.834 87.5108H159.093C158.891 87.5108 158.779 87.4197 158.667 87.1516L158.418 86.4555C157.858 86.9944 156.826 87.7578 155.231 87.7578C153.278 87.7578 151.886 86.4555 151.886 84.3014C151.886 82.3916 153.368 80.9559 156.04 80.9559V80.9559Z" fill="#53565A"/>
<path fill-rule="evenodd" clip-rule="evenodd" d="M147.912 81.1791C147.867 79.9231 146.879 78.8216 145.353 78.8216C143.714 78.8216 142.726 79.8769 142.568 81.1791H147.912ZM145.397 76.9131C148.091 76.9131 150.135 78.9127 150.135 81.6718C150.135 81.8527 150.112 82.212 150.09 82.3916C150.067 82.661 149.843 82.8406 149.618 82.8406H142.456C142.479 84.234 143.735 85.671 145.554 85.671C146.745 85.671 147.463 85.2431 148.091 84.794C148.316 84.6369 148.518 84.5695 148.698 84.8403L149.304 85.7819C149.483 86.0065 149.573 86.2072 149.259 86.478C148.518 87.1278 147.148 87.7578 145.421 87.7578C142.277 87.7578 140.234 85.2893 140.234 82.3255C140.234 79.4053 142.277 76.9131 145.397 76.9131V76.9131Z" fill="#53565A"/>
<path fill-rule="evenodd" clip-rule="evenodd" d="M125.042 72.2204C125.042 71.9959 125.244 71.7952 125.468 71.7952H126.949C127.197 71.7952 127.377 71.9959 127.377 72.2204V78.4861H135.593V72.2204C135.593 71.9959 135.773 71.7952 136.02 71.7952H137.501C137.726 71.7952 137.928 71.9959 137.928 72.2204V87.0842C137.928 87.3088 137.726 87.5108 137.501 87.5108H136.02C135.773 87.5108 135.593 87.3088 135.593 87.0842V80.5967H127.377V87.0842C127.377 87.3088 127.197 87.5108 126.949 87.5108H125.468C125.244 87.5108 125.042 87.3088 125.042 87.0842V72.2204" fill="#53565A"/>
<path fill-rule="evenodd" clip-rule="evenodd" d="M107.136 86.7025C106.979 86.5889 106.844 86.3882 106.956 86.1636L107.428 85.1982C107.54 84.9736 107.832 84.9076 108.102 85.0648C108.708 85.4003 109.449 85.8282 110.684 85.8282C111.559 85.8282 112.053 85.4003 112.053 84.8165C112.053 84.1204 111.266 83.6714 109.829 83.0216C108.236 82.3018 107.024 81.4486 107.024 79.7435C107.024 78.4399 107.944 76.9131 110.459 76.9131C111.896 76.9131 112.973 77.341 113.49 77.6765C113.736 77.8574 113.848 78.1718 113.715 78.4399L113.354 79.1597C113.197 79.4753 112.884 79.4516 112.682 79.3604C111.963 79.0461 111.266 78.8453 110.459 78.8453C109.561 78.8453 109.134 79.2944 109.134 79.7659C109.134 80.4395 109.875 80.8423 110.908 81.2914C112.815 82.101 114.252 82.797 114.252 84.7267C114.252 86.3446 112.86 87.7578 110.548 87.7578C108.91 87.7578 107.72 87.108 107.136 86.7025" fill="#53565A"/>
</g>
<path fill-rule="evenodd" clip-rule="evenodd" d="M104.365 71.5707C105.465 71.5707 106.296 72.5824 106.296 74.1765C106.296 76.0612 105.51 77.4322 104.703 78.3963C104.545 78.5535 104.388 78.5746 104.253 78.4399L103.714 78.0146C103.557 77.8575 103.603 77.7228 103.736 77.5656C104.343 76.8022 104.882 75.8143 104.882 74.8488C104.882 74.578 104.859 74.4011 104.769 74.2637C104.612 74.4209 104.343 74.4882 104.073 74.4882C103.243 74.4882 102.793 73.8384 102.793 73.0512C102.793 72.2205 103.467 71.5707 104.365 71.5707" fill="#53565A"/>
<mask id="mask1_312_3878" style="mask-type:alpha" maskUnits="userSpaceOnUse" x="59" y="71" width="43" height="17">
<path fill-rule="evenodd" clip-rule="evenodd" d="M59.7512 71.7952H101.842V87.6786H59.7512V71.7952Z" fill="white"/>
</mask>
<g mask="url(#mask1_312_3878)">
<path fill-rule="evenodd" clip-rule="evenodd" d="M92.5798 77.6329C92.5798 77.3846 92.8044 77.1376 93.0738 77.1376H93.6127C93.8372 77.1376 93.993 77.2512 94.0379 77.452L94.351 78.3501C94.5729 78.082 95.7589 76.9131 97.8246 76.9131C100.99 76.9131 101.842 79.1135 101.842 81.8091V87.0169C101.842 87.285 101.597 87.5108 101.348 87.5108H100.092C99.8229 87.5108 99.5983 87.285 99.5983 87.0169V81.7193C99.5983 80.034 98.9023 79.0461 97.5551 79.0461C95.9161 79.0461 94.973 80.1912 94.8172 80.5504V87.0169C94.8172 87.3523 94.6389 87.5108 94.2162 87.5108H93.0738C92.8044 87.5108 92.5798 87.285 92.5798 87.0169V77.6329" fill="#53565A"/>
<path fill-rule="evenodd" clip-rule="evenodd" d="M87.9241 81.1791C87.8792 79.9231 86.8913 78.8216 85.3658 78.8216C83.7268 78.8216 82.7388 79.8769 82.5804 81.1791H87.9241ZM85.4107 76.9131C88.1038 76.9131 90.147 78.9127 90.147 81.6718C90.147 81.8527 90.1245 82.212 90.1021 82.3916C90.0796 82.661 89.8551 82.8406 89.6305 82.8406H82.4694C82.4919 84.234 83.7479 85.671 85.5666 85.671C86.7579 85.671 87.4764 85.2431 88.1038 84.794C88.3283 84.6369 88.5304 84.5695 88.71 84.8403L89.3162 85.7819C89.4958 86.0065 89.5856 86.2072 89.2713 86.478C88.5304 87.1278 87.1607 87.7578 85.4332 87.7578C82.2898 87.7578 80.2466 85.2893 80.2466 82.3255C80.2466 79.4053 82.2898 76.9131 85.4107 76.9131V76.9131Z" fill="#53565A"/>
<path fill-rule="evenodd" clip-rule="evenodd" d="M72.7065 77.6329C72.7065 77.3846 72.9311 77.1376 73.1992 77.1376H73.7381C73.9414 77.1376 74.1435 77.2948 74.1871 77.4982L74.4816 78.4399C74.6586 78.1718 75.7377 76.9131 77.6237 76.9131C78.6116 76.9131 79.8465 77.1838 79.5084 77.8799L78.9696 79.0025C78.8362 79.2944 78.5641 79.3604 78.3409 79.2482C78.185 79.1597 77.7135 79.0461 77.3992 79.0461C75.8711 79.0461 75.0416 80.2586 74.9505 80.4395V87.0169C74.9505 87.4659 74.6586 87.5108 74.2333 87.5108H73.1992C72.9311 87.5108 72.7065 87.285 72.7065 87.0169V77.6329" fill="#53565A"/>
<path fill-rule="evenodd" clip-rule="evenodd" d="M64.8031 85.6248C66.3973 85.6248 67.2729 84.3912 67.3852 84.098V79.6523C67.3852 79.6523 66.3524 79.0461 65.0052 79.0461C63.2988 79.0461 61.9978 80.5505 61.9978 82.3255C61.9978 84.0769 63.1416 85.6248 64.8031 85.6248ZM64.7582 76.9131C66.0829 76.9131 67.1382 77.3846 67.3627 77.452V72.2904C67.3627 72.0421 67.6097 71.7952 67.8567 71.7952H69.1365C69.4059 71.7952 69.6305 72.0421 69.6305 72.2904V87.0169C69.6305 87.285 69.4059 87.5108 69.1365 87.5108H68.5976C68.3507 87.5108 68.1935 87.3325 68.1261 87.0618L67.9016 86.297C67.9016 86.297 66.5544 87.7578 64.4888 87.7578C61.7495 87.7578 59.7512 85.2893 59.7512 82.3255C59.7512 79.2944 61.8856 76.9131 64.7582 76.9131V76.9131Z" fill="#53565A"/>
</g>
<path fill-rule="evenodd" clip-rule="evenodd" d="M54.9265 72.2904C54.9265 72.0421 55.151 71.7952 55.4205 71.7952H56.6765C56.9248 71.7952 57.1705 72.0421 57.1705 72.2904V87.0169C57.1705 87.285 56.9248 87.5108 56.6765 87.5108H55.4205C55.151 87.5108 54.9265 87.285 54.9265 87.0169V72.2904" fill="#53565A"/>
<path fill-rule="evenodd" clip-rule="evenodd" d="M49.5286 77.6329C49.5286 77.3846 49.7544 77.1376 50.0225 77.1376H51.2799C51.5282 77.1376 51.7739 77.3846 51.7739 77.6329V87.0169C51.7739 87.285 51.5282 87.5109 51.2799 87.5109H50.0225C49.7544 87.5109 49.5286 87.285 49.5286 87.0169V77.6329ZM49.1707 73.4131C49.1707 72.5586 49.8218 71.885 50.6525 71.885C51.5044 71.885 52.178 72.5586 52.178 73.4131C52.178 74.2426 51.5044 74.9161 50.6525 74.9161C49.8218 74.9161 49.1707 74.2426 49.1707 73.4131V73.4131Z" fill="#53565A"/>
<mask id="mask2_312_3878" style="mask-type:alpha" maskUnits="userSpaceOnUse" x="20" y="71" width="27" height="17">
<path fill-rule="evenodd" clip-rule="evenodd" d="M20.9792 71.5707H46.4223V87.6786H20.9792V71.5707Z" fill="white"/>
</mask>
<g mask="url(#mask2_312_3878)">
<path fill-rule="evenodd" clip-rule="evenodd" d="M37.1492 72.2904C37.1492 72.0421 37.375 71.7952 37.6431 71.7952H38.9005C39.1488 71.7952 39.3945 72.0421 39.3945 72.2904V77.9908C39.6428 77.8112 40.7641 76.9131 42.4031 76.9131C45.3445 76.9131 46.4222 78.9801 46.4222 81.8091V87.0169C46.4222 87.285 46.1752 87.5108 45.9282 87.5108H44.6709C44.4014 87.5108 44.1769 87.285 44.1769 87.0169V81.7629C44.1769 80.0578 43.4584 79.0461 42.1112 79.0461C40.5171 79.0461 39.619 80.1014 39.3945 80.5504V87.0169C39.3945 87.3087 39.1924 87.5108 38.8794 87.5108H37.6431C37.375 87.5108 37.1492 87.285 37.1492 87.0169V72.2904" fill="#53565A"/>
<path fill-rule="evenodd" clip-rule="evenodd" d="M29.0834 71.5707C31.3498 71.5707 32.9902 72.3341 34.5157 73.6575C34.7177 73.8384 34.7177 74.1065 34.5381 74.2875L33.5502 75.2978C33.393 75.4999 33.1909 75.4999 32.9902 75.2978C31.9349 74.3773 30.4979 73.7948 29.1059 73.7948C25.8951 73.7948 23.4715 76.4878 23.4715 79.6299C23.4715 82.7733 25.9176 85.4465 29.1283 85.4465C30.7674 85.4465 31.9111 84.7941 32.9902 83.9633C33.1909 83.8062 33.393 83.8286 33.5291 83.9395L34.5606 84.9512C34.7415 85.1084 34.6966 85.4003 34.5381 85.5575C33.0113 87.038 31.0804 87.7341 29.0834 87.7341C24.5928 87.7341 20.9792 84.1641 20.9792 79.6762C20.9792 75.1843 24.5928 71.5707 29.0834 71.5707" fill="#53565A"/>
</g>
<path fill-rule="evenodd" clip-rule="evenodd" d="M55.2395 61.5567H184.585V59.4514H55.2395V61.5567Z" fill="#C7C7C7"/>
<path fill-rule="evenodd" clip-rule="evenodd" d="M175.827 34.6543H184.368V36.7767H178.342V40.3983H183.436V42.522H178.342V46.7075H184.585V48.8313H175.827V34.6543" fill="#53565A"/>
<path fill-rule="evenodd" clip-rule="evenodd" d="M155.851 34.6543H158.431L162.853 42.6303L164.305 45.6443H164.392C164.285 44.1928 164.068 42.3926 164.068 40.8103V34.6543H166.473V48.8313H163.894L159.471 40.8539L158.019 37.84H157.932C158.04 39.3364 158.258 41.0494 158.258 42.6303V48.8313H155.851V34.6543" fill="#53565A"/>
<path fill-rule="evenodd" clip-rule="evenodd" d="M143.982 48.8313H146.497V34.6543H143.982V48.8313Z" fill="#53565A"/>
<path fill-rule="evenodd" clip-rule="evenodd" d="M131.551 34.394C133.263 34.394 134.693 35.2367 135.581 36.1929L134.173 37.7554C133.457 37.0382 132.657 36.5825 131.571 36.5825C129.231 36.5825 127.583 38.5346 127.583 41.7216C127.583 44.9495 129.1 46.9016 131.485 46.9016C132.741 46.9016 133.653 46.3812 134.454 45.4937L135.864 47.0323C134.715 48.3544 133.218 49.0901 131.442 49.0901C127.82 49.0901 125.004 46.4895 125.004 41.7863C125.004 37.1478 127.907 34.394 131.551 34.394" fill="#53565A"/>
<path fill-rule="evenodd" clip-rule="evenodd" d="M113.872 48.8313H116.387V34.6543H113.872V48.8313Z" fill="#53565A"/>
<path fill-rule="evenodd" clip-rule="evenodd" d="M98.1851 46.7907C101.046 46.7907 102.673 45.1688 102.673 41.6768C102.673 38.2084 101.046 36.6922 98.1851 36.6922H97.0797V46.7907H98.1851ZM94.5649 34.6543H98.3595C102.694 34.6543 105.252 36.996 105.252 41.6768C105.252 46.3813 102.694 48.8313 98.4876 48.8313H94.5649V34.6543V34.6543Z" fill="#53565A"/>
<path fill-rule="evenodd" clip-rule="evenodd" d="M77.1443 34.6543H85.6869V36.7767H79.6616V40.3983H84.7545V42.522H79.6616V46.7075H85.9035V48.8313H77.1443V34.6543" fill="#53565A"/>
<path fill-rule="evenodd" clip-rule="evenodd" d="M55.2395 34.6543H58.0144L60.574 41.6345L61.5052 44.3209H61.5923L62.5037 41.6345L65.017 34.6543H67.792V48.8313H65.4291V42.349C65.4291 41.0269 65.6246 39.1422 65.754 37.84H65.6682L64.5191 41.0692L62.0691 47.5079H60.8989L58.4489 41.0692L57.321 37.84H57.2352C57.3659 39.1422 57.5587 41.0269 57.5587 42.349V48.8313H55.2395V34.6543" fill="#53565A"/>
<path fill-rule="evenodd" clip-rule="evenodd" d="M175.103 11.8251C171.788 11.8251 170.168 14.0941 170.168 18.763C170.168 20.6543 170.704 25.0551 175.646 25.0551H175.805C176.407 25.0551 177.524 24.9679 178.502 24.3617V12.9623C178.224 12.6862 177.193 11.8251 175.103 11.8251ZM179.032 27.4774L178.577 27.3255V25.8911C177.733 26.5172 176.059 27.4879 173.822 27.4879C169.147 27.4879 166.125 24.2468 166.125 19.2266C166.125 17.5611 166.454 15.9789 167.057 14.6436C168.481 11.557 171.446 9.78584 175.177 9.78584C176.547 9.78584 177.772 9.9549 178.502 10.1121V6.4932C178.502 4.37207 178.475 3.24282 178.17 2.78584C177.825 2.28924 177.079 2.23245 176.678 2.20339C176.625 2.20075 176.579 2.19811 176.54 2.19282L176.218 2.1598L176.293 1.39509H176.652C176.734 1.39509 178.701 1.23263 180.299 0.919616C180.97 0.809993 181.634 0.660748 181.979 0.532635L182.149 0.469238L182.443 0.644899L182.428 0.809993C182.315 2.21263 182.297 5.21207 182.297 7.45867V21.3358C182.297 23.4094 182.325 24.6932 182.626 25.1066C182.979 25.6124 183.72 25.6983 184.123 25.7287C184.176 25.7313 184.224 25.7326 184.264 25.7392L184.585 25.7524V26.6664H184.228C183.847 26.6664 182.361 26.7707 180.924 27.019C180.097 27.1524 179.488 27.2713 179.187 27.41L179.032 27.4774V27.4774Z" fill="#8C1515"/>
<path fill-rule="evenodd" clip-rule="evenodd" d="M152.274 27.2409V26.3785L152.606 26.3507C152.895 26.3322 153.623 26.22 154.121 25.6494C154.649 25.0617 154.671 23.663 154.671 20.7626V15.8983C154.671 13.8049 154.642 12.9081 154.341 12.4511C153.992 11.9505 153.226 11.8977 152.813 11.8687C152.764 11.866 152.715 11.8581 152.68 11.8581L152.348 11.8251V10.7936L152.715 10.8002C152.779 10.8054 152.888 10.8068 152.994 10.8068C153.522 10.8068 154.762 10.7407 156.069 10.4858C156.894 10.3498 157.607 10.1358 157.894 10.0011L158.091 9.91394L158.392 10.0698V11.549C159.207 10.7804 160.5 9.96413 162.326 9.96413C163.518 9.96413 164.477 10.2824 165.177 10.9111L165.293 11.0194V11.557L163.86 14.1826H163.172L163.065 14.0162C162.666 13.3902 161.869 12.6466 160.323 12.6466C159.616 12.6466 159.006 12.8236 158.466 13.1868V21.7638C158.466 24.0117 158.54 25.0736 158.833 25.5107C159.312 26.2239 160.753 26.2807 161.18 26.2807H161.537V27.2224L161.163 27.2013C159.293 27.1036 157.894 27.06 156.888 27.06C155.624 27.06 154.191 27.06 152.669 27.2013L152.274 27.2409" fill="#8C1515"/>
<path fill-rule="evenodd" clip-rule="evenodd" d="M142.187 11.7141C141.186 11.7141 140.373 11.9743 139.78 12.488C138.41 13.6331 137.719 15.7212 137.719 18.689C137.719 19.8354 137.931 25.5595 142.121 25.5595C143.119 25.5595 143.936 25.2967 144.536 24.7869C145.897 23.6418 146.59 21.5524 146.59 18.5833C146.59 17.4382 146.378 11.7141 142.187 11.7141ZM141.972 27.5261C136.78 27.5261 133.677 24.289 133.677 18.8699C133.677 14.662 135.943 9.74878 142.333 9.74878C147.529 9.74878 150.632 12.9859 150.632 18.4024C150.632 22.6129 148.366 27.5261 141.972 27.5261V27.5261Z" fill="#8C1515"/>
<path fill-rule="evenodd" clip-rule="evenodd" d="M122.397 27.2409V26.4154L122.73 26.389C123.019 26.3692 123.739 26.2556 124.24 25.689C124.771 25.1026 124.794 23.663 124.794 20.7626V12.3256H122.578V11.3707L122.8 11.2782C123.764 10.8807 124.356 10.5637 124.794 10.223C124.798 8.71334 124.845 6.76919 125.049 5.70994C125.724 2.19806 128.018 0.415039 131.88 0.415039C133.536 0.415039 135.117 0.967114 136.034 1.71334L136.166 1.819L136.219 2.17957L134.528 4.52655L134.122 4.53051L134.03 4.31787C133.383 2.87428 132.444 2.31032 131.163 2.31032C130.629 2.31032 129.899 2.46881 129.447 2.92315C128.709 3.65749 128.586 4.7524 128.586 6.92372V10.215H132.378V12.3256H128.586V21.7637C128.586 24.0116 128.66 25.1065 128.953 25.545C129.429 26.2622 130.878 26.3164 131.304 26.3164H131.665V27.2224L131.286 27.2013C129.412 27.1035 128.018 27.0599 127.012 27.0599C125.748 27.0599 124.311 27.0599 122.789 27.2013L122.397 27.2409" fill="#8C1515"/>
<path fill-rule="evenodd" clip-rule="evenodd" d="M101.17 26.4312L101.498 26.4075C101.784 26.381 102.503 26.2688 103.006 25.7009C103.533 25.1144 103.565 23.6629 103.565 20.7626V15.8982C103.565 13.8048 103.533 12.908 103.228 12.451C102.882 11.9505 102.112 11.8977 101.702 11.8686C101.65 11.866 101.603 11.858 101.561 11.858L101.236 11.825V10.849L101.622 10.8807C101.688 10.8886 101.772 10.8886 101.882 10.8886C102.408 10.8886 103.649 10.8186 104.959 10.5637C105.961 10.4052 106.542 10.0592 106.753 9.96011L106.948 9.86897L107.284 10.0697V11.4222C108.142 10.7856 109.87 9.78577 112.217 9.78577C115.284 9.78577 117.29 11.2214 117.861 13.822C118.023 14.4692 118.084 16.0343 118.084 16.8677V21.8363C118.084 24.6456 118.193 25.4354 118.719 25.928C118.984 26.1697 119.546 26.3705 120.036 26.4035L120.371 26.4273V27.2224L119.527 27.1788C118.306 27.1167 117.254 27.0599 116.15 27.0599C114.893 27.0599 113.806 27.0599 112.288 27.2012L111.892 27.2409V26.4537L112.198 26.4101C112.859 26.3097 113.318 26.1209 113.612 25.829C114.162 25.2769 114.19 23.9694 114.232 22.8388C114.239 22.6512 114.247 22.4531 114.258 22.2484C114.289 21.6131 114.289 20.2752 114.289 19.2978C114.289 18.0233 114.289 16.7052 114.152 15.4056C113.897 13.2052 112.749 12.1803 110.537 12.1803C109.018 12.1803 108.068 12.529 107.35 12.8975V21.8363C107.35 24.6456 107.465 25.4354 107.992 25.928C108.26 26.1697 108.813 26.3705 109.309 26.4035L109.641 26.4273V27.2224L108.735 27.1761C107.557 27.1154 106.535 27.0599 105.463 27.0599C104.232 27.0599 103.077 27.0599 101.555 27.2012L101.17 27.2409V26.4312Z" fill="#8C1515"/>
<path fill-rule="evenodd" clip-rule="evenodd" d="M93.3777 18.4367C91.11 19.1169 90.34 19.496 89.6373 19.8526C88.6613 20.3452 88.1528 21.349 88.1528 22.5244C88.1528 23.4477 88.4817 24.9916 90.6939 24.9916C91.4243 24.9916 92.4677 24.8569 93.3777 24.2044V18.4367ZM89.2966 27.3901C84.6832 27.3901 84.3279 23.8875 84.3279 22.811C84.3279 21.5471 84.666 19.315 87.606 18.232C90.6411 17.1186 91.2896 16.9892 93.3777 16.3314V15.7926C93.3777 14.7809 93.3777 14.5339 93.1769 13.9065C92.7741 12.7033 91.6198 11.9492 90.0547 11.9492C87.7513 11.9492 86.8069 13.7058 86.8003 13.7229L86.6167 14.0677L85.7622 13.5578L85.8467 13.2963C86.2641 11.9716 87.9349 9.71973 91.5894 9.71973C93.9628 9.71973 95.5094 10.3946 96.4669 11.8475C97.1801 13.0031 97.2356 14.5973 97.2356 16.2667C97.2356 17.7314 97.2013 19.3652 97.1696 20.6807C97.1484 21.5841 97.13 22.3686 97.13 22.8441C97.13 24.0499 97.3215 24.981 98.3226 24.981C98.5722 24.981 98.7426 24.9282 98.88 24.8107L99.1547 24.5782L99.716 25.2175L99.5298 25.4578C98.6079 26.5699 97.7309 27.3544 96.1671 27.3544C94.8134 27.3544 93.8756 26.7099 93.5586 25.6309C92.8071 26.4154 91.4388 27.3901 89.2966 27.3901V27.3901Z" fill="#8C1515"/>
<path fill-rule="evenodd" clip-rule="evenodd" d="M78.012 27.4548C75.3771 27.4548 73.9203 26.5131 73.2731 24.4131C73.005 23.5758 73.005 21.9288 73.005 20.9422C73.005 18.2227 73.0288 16.0395 73.0579 13.5116L73.0711 12.3256H70.8245V11.6573L71.0424 11.5661C72.0897 11.1329 72.4886 10.8397 72.9509 10.4831C74.5873 9.21387 75.7231 7.06764 75.7416 7.03726L76.1247 6.38745H76.8656V10.215H82.665V12.3256H76.8656V21.2631C76.8656 23.9337 77.3635 25.4578 79.8928 25.4578C81.0669 25.4578 81.9716 25.0008 81.9769 24.9942L82.3269 24.8159L82.6254 25.5067L82.4788 25.6718C82.4181 25.7391 81.1052 27.4548 78.012 27.4548" fill="#8C1515"/>
<path fill-rule="evenodd" clip-rule="evenodd" d="M61.1064 27.3466C58.8981 27.3466 57.2141 27.1036 55.4892 26.5409L55.2396 26.4604V25.2228C55.2396 23.5758 55.2052 22.9274 55.1696 22.403L55.1194 21.5472L56.1245 21.5498L56.1456 21.9077C56.1879 22.6764 56.4454 23.4306 56.9156 23.9602C57.6394 24.779 59.3062 25.2743 60.8541 25.2743C64.1005 25.2743 65.6101 24.046 65.6101 21.4085C65.6101 19.1487 64.2141 18.2096 62.2858 16.906L61.9781 16.6947L59.9401 15.3409C57.1084 13.4628 55.6701 11.9611 55.6701 8.96169C55.6701 7.49169 56.2222 2.70264 63.3596 2.70264C66.289 2.70264 68.5462 3.0883 68.6413 3.10018L68.9477 3.15566L68.9371 3.45811C68.9371 3.46735 68.9134 4.39584 68.9134 5.40622C68.9134 6.20132 68.8988 6.89207 68.9266 7.6066L68.9543 8.1415H68.0905L68.0681 7.80603C68.0047 6.9 67.7405 6.24754 67.2426 5.7483C66.5571 5.0615 65.0383 4.73924 63.4296 4.73924C59.6496 4.73924 59.2071 6.68339 59.2071 8.1415C59.2071 10.1477 60.2373 10.8266 62.4839 12.3111L65.0634 14.0202C67.2611 15.4849 69.3307 16.8677 69.3307 20.5117C69.3307 26.6783 63.5788 27.3466 61.1064 27.3466" fill="#8C1515"/>
<mask id="mask3_312_3878" style="mask-type:alpha" maskUnits="userSpaceOnUse" x="0" y="2" width="44" height="49">
<path fill-rule="evenodd" clip-rule="evenodd" d="M0.415039 2.70264H43.8098V50.2485H0.415039V2.70264Z" fill="white"/>
</mask>
<g mask="url(#mask3_312_3878)">
<path fill-rule="evenodd" clip-rule="evenodd" d="M35.5656 40.356C42.0637 32.3245 43.811 23.0462 43.8097 15.6447C43.8097 9.26547 42.5101 4.2849 41.8312 2.70264H5.10763C4.4314 4.2849 3.12914 9.26679 3.12649 15.6447C3.12517 18.6507 3.4131 21.9658 4.1897 25.3813C2.26272 25.5649 1.61423 25.9123 1.41876 27.2594C1.30781 28.044 1.56008 29.053 3.24008 29.4479C4.02197 29.5589 4.75498 29.6698 5.46555 29.7768C8.11763 37.2509 13.4442 44.7766 23.4701 50.2485C26.8631 48.3968 29.7159 46.3073 32.1118 44.066C33.0852 45.1596 34.0691 46.3417 35.0756 47.6149C36.564 48.933 37.8742 49.2738 38.8661 49.246C40.0746 49.213 40.5118 48.1657 40.1261 47.5515C39.162 46.0168 37.3274 43.1085 35.5656 40.356" fill="#8C1515"/>
<path fill-rule="evenodd" clip-rule="evenodd" d="M41.0163 47.0575C40.7534 46.6362 34.5776 36.8005 32.2306 33.3375C27.6925 26.6334 22.8995 25.9519 17.4566 24.7962C14.7055 24.47 9.11871 24.0764 5.32022 23.7303C1.96022 23.9496 0.76758 25.1264 0.335693 27.3703C10.2546 28.7862 17.2268 30.4583 23.6114 34.7124C27.5432 37.3302 31.2519 40.9239 35.2842 46.0366C38.5861 48.962 41.0163 47.0575 41.0163 47.0575" fill="white"/>
</g>
<path fill-rule="evenodd" clip-rule="evenodd" d="M9.38037 15.8758C9.38037 15.8758 10.7011 14.0651 13.2951 14.707C18.8568 17.1226 22.823 18.6336 25.8713 18.8621C29.2736 18.2651 31.4977 16.2787 34.4483 10.7711C34.4483 10.7711 36.6791 12.2873 35.4706 15.3013C33.2728 20.7639 30.4992 23.2734 27.3109 24.2851C25.9875 24.7038 22.8455 23.9179 20.2502 22.9049C17.2019 21.2381 13.513 19.2451 9.38037 15.8758" fill="white"/>
<path fill-rule="evenodd" clip-rule="evenodd" d="M29.5734 12.4326C29.3647 15.2049 26.9795 16.9284 24.2046 16.7237C21.4376 16.5137 19.8329 14.2341 19.5383 11.6811C19.747 8.91146 22.1442 7.55768 24.9151 7.769C27.6623 8.4307 29.5113 9.659 29.5734 12.4326" fill="white"/>
</svg>
